# xmcd
#
# Track frame offsets: 
#        150
#        17070
#        51970
#        68137
#        79970
#        94162
#        106885
#        137440
#        154070
#        179300
#        201122
#        214342
#        233407
#        251505
#        271507
#
# Disc length: 3873 seconds
#
# Revision: 3
# Processed by: cddbd v1.5.1PL0 Copyright (c) Steve Scherf et al.
# Submitted via: ExactAudioCopy v0.95a4
#
DISCID=c30f1f0f
DTITLE=Jack Ingram - Live At Billy Bob's
DYEAR=2003
DGENRE=Country
TTITLE0=We're All In This Together
TTITLE1=Beat Up Ford
TTITLE2=Flutter
TTITLE3=Nothing Wrong With That
TTITLE4=Ghost Of A Man
TTITLE5=Red, White and Blues
TTITLE6=Keep On Keepin' On
TTITLE7=She Don't Love You
TTITLE8=Nothing To Gain
TTITLE9=Dim Lights, Thick Smoke (And Loud, Loud Music)
TTITLE10=Attitude and Driving
TTITLE11=A Little Bit
TTITLE12=I Won't Go With Her
TTITLE13=Run To Me
TTITLE14=Are You Sure Hank Done It This Way?
EXTD=YEAR: 2003
EXTT0=
EXTT1=
EXTT2=
EXTT3=
EXTT4=
EXTT5=
EXTT6=
EXTT7=
EXTT8=
EXTT9=
EXTT10=
EXTT11=
EXTT12=
EXTT13=
EXTT14=
PLAYORDER=
